<svg xmlns="http://www.w3.org/2000/svg" width="57.281" height="51.965" viewBox="0 0 57.281 51.965">
  <g id="Group_3" data-name="Group 3" transform="translate(0 0)">
    <rect id="Rectangle_1" data-name="Rectangle 1" width="1.464" height="2.928" transform="translate(27.997 33.696)"/>
    <rect id="Rectangle_2" data-name="Rectangle 2" width="1.464" height="3.416" transform="translate(27.997 15.15)"/>
    <rect id="Rectangle_3" data-name="Rectangle 3" width="3.416" height="1.464" transform="translate(17.747 25.399)"/>
    <rect id="Rectangle_4" data-name="Rectangle 4" width="2.928" height="1.464" transform="translate(36.294 25.399)"/>
    <rect id="Rectangle_5" data-name="Rectangle 5" width="1.527" height="3.056" transform="translate(33.497 31.922) rotate(-45)"/>
    <rect id="Rectangle_6" data-name="Rectangle 6" width="1.527" height="3.056" transform="translate(20.536 18.962) rotate(-45)"/>
    <rect id="Rectangle_7" data-name="Rectangle 7" width="3.056" height="1.527" transform="translate(20.539 33.003) rotate(-45)"/>
    <rect id="Rectangle_8" data-name="Rectangle 8" width="3.056" height="1.527" transform="translate(33.499 20.043) rotate(-45)"/>
    <path id="Path_1" data-name="Path 1" d="M106.124,111.925a17.49,17.49,0,0,1-9.159-3.142c-5.105-3.255-10-8.657-13.784-15.21S77.167,80.08,76.9,74.031c-.275-6.228,1.563-10.805,5.176-12.891s8.5-1.388,13.752,1.963c5.105,3.255,10,8.657,13.784,15.21s6.014,13.493,6.281,19.542c.275,6.228-1.564,10.805-5.176,12.891A9.056,9.056,0,0,1,106.124,111.925ZM86.678,61.488a7.567,7.567,0,0,0-3.838.975c-3.095,1.786-4.662,5.871-4.414,11.5.256,5.808,2.415,12.5,6.078,18.846s8.379,11.56,13.281,14.686c4.752,3.03,9.072,3.714,12.167,1.928s4.662-5.871,4.414-11.5c-.256-5.808-2.415-12.5-6.078-18.846s-8.379-11.56-13.282-14.686A16.011,16.011,0,0,0,86.678,61.488Z" transform="translate(-67.757 -59.96)"/>
    <path id="Path_2" data-name="Path 2" d="M86.674,111.926a9.056,9.056,0,0,1-4.593-1.179c-3.612-2.085-5.45-6.664-5.176-12.891.267-6.049,2.5-12.989,6.281-19.542S91.865,66.359,96.97,63.1c5.255-3.351,10.14-4.049,13.752-1.963s5.45,6.664,5.176,12.891c-.267,6.049-2.5,12.989-6.281,19.542s-8.678,11.955-13.784,15.21a17.494,17.494,0,0,1-9.159,3.142ZM106.12,61.488a16.014,16.014,0,0,0-8.329,2.9c-4.9,3.126-9.619,8.342-13.282,14.686s-5.822,13.037-6.078,18.846c-.248,5.63,1.319,9.714,4.414,11.5s7.415,1.1,12.167-1.928c4.9-3.126,9.619-8.342,13.281-14.686s5.822-13.037,6.078-18.846c.248-5.63-1.319-9.714-4.414-11.5a7.569,7.569,0,0,0-3.838-.975Z" transform="translate(-67.76 -59.961)"/>
    <path id="Path_3" data-name="Path 3" d="M81.64,118.559c-7.566,0-14.692-1.539-20.064-4.332C56.046,111.351,53,107.47,53,103.3s3.046-8.052,8.576-10.928c5.372-2.793,12.5-4.332,20.064-4.332s14.692,1.539,20.064,4.332c5.531,2.876,8.577,6.757,8.577,10.928s-3.046,8.052-8.577,10.928C96.333,117.021,89.207,118.559,81.64,118.559Zm0-28.992c-14.95,0-27.113,6.16-27.113,13.732s12.163,13.732,27.113,13.732,27.113-6.16,27.113-13.732S96.59,89.568,81.64,89.568Z" transform="translate(-53 -77.317)"/>
    <ellipse id="Ellipse_1" data-name="Ellipse 1" cx="5.613" cy="5.857" rx="5.613" ry="5.857" transform="translate(23.116 20.03)" fill="#c11a1a"/>
    <path id="Path_4" data-name="Path 4" d="M117.492,123.984a6.492,6.492,0,1,1,6.492-6.492A6.5,6.5,0,0,1,117.492,123.984Zm0-11.456a4.964,4.964,0,1,0,4.964,4.964A4.97,4.97,0,0,0,117.492,112.527Z" transform="translate(-88.851 -91.509)"/>
  </g>
</svg>
